<?xml version="1.0" standalone="no"?>
<!DOCTYPE svg PUBLIC "-//W3C//DTD SVG 1.1//EN" "http://www.w3.org/Graphics/SVG/1.1/DTD/svg11.dtd" >
<svg xmlns="http://www.w3.org/2000/svg">
<metadata>Generated by IcoMoon</metadata>
<defs>
<font id="nvs-ssi-font" horiz-adv-x="1024">
<font-face units-per-em="1024" ascent="960" descent="-64" />
<missing-glyph horiz-adv-x="1024" />
<glyph unicode="&#x20;" horiz-adv-x="512" d="" />
<glyph unicode="&#xe900;" d="M512 79.36c203.596 0 368.64 165.044 368.64 368.64 0 203.594-165.044 368.64-368.64 368.64-203.594 0-368.64-165.046-368.64-368.64 0-203.596 165.046-368.64 368.64-368.64z" />
<glyph unicode="&#xe901;" d="M656.601 592.602c11.997-11.997 11.997-31.448 0-43.443l-245.759-245.76c-11.997-11.997-31.448-11.997-43.445 0s-11.997 31.445 0 43.442l245.761 245.761c11.997 11.997 31.445 11.997 43.442 0z" />
<glyph unicode="&#xe902;" d="M367.398 592.602c11.997 11.997 31.448 11.997 43.445 0l245.759-245.761c11.997-11.997 11.997-31.445 0-43.442s-31.445-11.997-43.442 0l-245.761 245.76c-11.997 11.996-11.997 31.447 0 43.443z" />
<glyph unicode="&#xe903;" d="M512 79.36c203.596 0 368.64 165.044 368.64 368.64 0 203.594-165.044 368.64-368.64 368.64-203.594 0-368.64-165.046-368.64-368.64 0-203.596 165.046-368.64 368.64-368.64z" />
<glyph unicode="&#xe904;" d="M656.601 592.602c11.997-11.997 11.997-31.448 0-43.443l-245.759-245.76c-11.997-11.997-31.448-11.997-43.445 0s-11.997 31.445 0 43.442l245.761 245.761c11.997 11.997 31.445 11.997 43.442 0z" />
<glyph unicode="&#xe905;" d="M367.398 592.602c11.997 11.997 31.448 11.997 43.445 0l245.759-245.761c11.997-11.997 11.997-31.445 0-43.442s-31.445-11.997-43.442 0l-245.761 245.76c-11.997 11.996-11.997 31.447 0 43.443z" />
<glyph unicode="&#xe906;" d="M512 79.36c203.596 0 368.64 165.044 368.64 368.64 0 203.594-165.044 368.64-368.64 368.64-203.594 0-368.64-165.046-368.64-368.64 0-203.596 165.046-368.64 368.64-368.64z" />
<glyph unicode="&#xe907;" d="M656.601 592.602c11.997-11.997 11.997-31.448 0-43.443l-245.759-245.76c-11.997-11.997-31.448-11.997-43.445 0s-11.997 31.445 0 43.442l245.761 245.761c11.997 11.997 31.445 11.997 43.442 0z" />
<glyph unicode="&#xe908;" d="M367.398 592.602c11.997 11.997 31.448 11.997 43.445 0l245.759-245.761c11.997-11.997 11.997-31.445 0-43.442s-31.445-11.997-43.442 0l-245.761 245.76c-11.997 11.996-11.997 31.447 0 43.443z" />
<glyph unicode="&#xe909;" glyph-name="ic_check_white" horiz-adv-x="1092" d="M8.533 789.333c0 65.333 52.267 119.467 119.467 119.467h298.667v-238.933c0-33.6 26.133-59.733 59.733-59.733h238.933v-72.8c-138.134-39.199-238.933-166.133-238.933-315.466 0-111.998 54.133-209.067 136.266-268.8-5.6 0-11.2 0-16.8 0h-477.867c-67.2 0-119.467 52.265-119.467 119.467v716.8zM486.4 669.867v238.933l238.933-238.933h-238.933zM1083.733 221.867c0-149.333-121.33-268.8-268.8-268.8-149.333 0-268.8 119.467-268.8 268.8 0 147.467 119.467 268.8 268.8 268.8 147.47 0 268.8-121.333 268.8-268.8zM897.065 302.133l-111.998-113.867-54.135 54.135c-11.196 11.196-31.73 11.196-42.933 0-11.198-11.203-11.198-31.737 0-42.933l74.67-74.67c11.196-11.196 31.73-11.196 42.933 0l134.397 134.403c11.203 11.196 11.203 31.732 0 42.932-11.196 11.2-31.73 11.2-42.933 0z" />
<glyph unicode="&#xe90a;" glyph-name="ic_delete_func" d="M413.538 182.154c0-16.612-14.769-29.538-29.538-29.538-16.616 0-29.538 12.926-29.538 29.538v384c0 14.769 12.923 29.538 29.538 29.538 14.769 0 29.538-14.769 29.538-29.538v-384zM561.231 182.154c0-16.612-14.769-29.538-29.538-29.538-16.616 0-29.538 12.926-29.538 29.538v384c0 14.769 12.923 29.538 29.538 29.538 14.769 0 29.538-14.769 29.538-29.538v-384zM708.923 182.154c0-16.612-14.769-29.538-29.538-29.538-16.616 0-29.538 12.926-29.538 29.538v384c0 14.769 12.923 29.538 29.538 29.538 14.769 0 29.538-14.769 29.538-29.538v-384zM703.385 874.461l68.308-101.538h129.23c24.001 0 44.308-20.307 44.308-44.308 0-25.846-20.307-44.308-44.308-44.308h-14.769v-561.231c0-83.078-66.462-147.692-147.692-147.692h-413.538c-83.077 0-147.692 64.614-147.692 147.692v561.231h-14.769c-25.846 0-44.308 18.462-44.308 44.308 0 24 18.462 44.308 44.308 44.308h127.385l68.308 101.538c18.461 27.693 51.692 46.154 86.769 46.154h171.692c35.078 0 68.308-18.462 86.77-46.154zM396.923 772.923h267.693l-35.077 51.692c-1.846 3.692-7.385 7.385-12.924 7.385h-171.692c-5.539 0-11.077-3.693-12.923-7.385l-35.078-51.692zM265.846 123.077c0-33.233 25.846-59.077 59.077-59.077h413.538c31.385 0 59.077 25.844 59.077 59.077v561.231h-531.692v-561.231z" />
<glyph unicode="&#xe90b;" glyph-name="ic_destroy_white" horiz-adv-x="956" d="M0 430.933c0 263.2 212.8 477.867 477.867 477.867 263.202 0 477.867-214.667 477.867-477.867 0-265.066-214.665-477.867-477.867-477.867-265.066 0-477.867 212.801-477.867 477.867zM326.667 518.667l87.733-87.734-87.733-87.734c-18.667-18.666-18.667-46.666 0-63.466 16.8-18.668 44.8-18.668 61.6 0l87.734 87.733 89.6-87.733c16.8-18.668 44.8-18.668 61.6 0 18.667 16.8 18.667 44.8 0 63.466l-87.734 87.734 87.734 87.734c18.667 16.8 18.667 44.8 0 63.466-16.8 16.8-44.8 16.8-61.6 0l-89.6-89.6-87.734 89.6c-16.8 16.8-44.8 16.8-61.6 0-18.667-18.666-18.667-46.666 0-63.466z" />
<glyph unicode="&#xe90c;" d="M512 917.333c259.206 0 469.333-210.128 469.333-469.333s-210.128-469.333-469.333-469.333c-259.206 0-469.333 210.128-469.333 469.333s210.128 469.333 469.333 469.333z" />
<glyph unicode="&#xe90d;" d="M426.667 149.333c-12 0-22.666 4-30.667 12-17.333 16-17.333 44 0 60l225.334 226.667-225.334 225.333c-17.333 16-17.333 44 0 60 16 17.334 44 17.334 60 0l256-256c17.334-16 17.334-44 0-60l-256-256c-8-7.999-18.667-12-29.333-12z" />
<glyph unicode="&#xe90e;" d="M512 917.333c259.206 0 469.333-210.128 469.333-469.333s-210.128-469.333-469.333-469.333c-259.206 0-469.333 210.128-469.333 469.333s210.128 469.333 469.333 469.333z" />
<glyph unicode="&#xe90f;" glyph-name="ic_info_func" d="M512 920.615c-262.153 0-472.615-212.307-472.615-472.615 0-262.153 210.462-472.615 472.615-472.615 260.308 0 472.615 210.462 472.615 472.615 0 260.308-212.307 472.615-472.615 472.615zM512 64c-212.307 0-384 171.693-384 384 0 210.462 171.693 384 384 384 210.462 0 384-173.538 384-384 0-212.307-173.538-384-384-384zM585.846 300.308h-29.538v162.462c0 24-20.307 44.308-44.308 44.308h-59.077c-25.846 0-44.308-20.307-44.308-44.308 0-25.846 18.462-44.308 44.308-44.308h14.769v-118.154h-29.538c-25.846 0-44.308-20.307-44.308-44.308 0-25.846 18.462-44.308 44.308-44.308h147.692c24 0 44.308 18.462 44.308 44.308 0 24-20.307 44.308-44.308 44.308zM512 566.154c31.385 0 59.077 25.846 59.077 59.077 0 31.385-27.692 59.077-59.077 59.077-33.231 0-59.077-27.692-59.077-59.077 0-33.231 25.846-59.077 59.077-59.077z" />
<glyph unicode="&#xe910;" d="M896 448c0-212.077-171.923-384-384-384s-384 171.923-384 384c0 212.077 171.923 384 384 384s384-171.923 384-384z" />
<glyph unicode="&#xe911;" d="M512 640.004c17.674 0 32-14.328 32-32.001v-192c0-17.67-14.326-32-32-32s-32 14.33-32 32v192c0 17.674 14.326 32.001 32 32.001z" />
<glyph unicode="&#xe912;" d="M480 287.997c0 17.67 14.326 32 32 32h0.426c17.674 0 32-14.33 32-32 0-17.674-14.326-32-32-32h-0.426c-17.674 0-32 14.326-32 32z" />
<glyph unicode="&#xe913;" glyph-name="ic_refuse_white" horiz-adv-x="1092" d="M8.533 789.333c0 65.333 52.267 119.467 119.467 119.467h298.667v-238.933c0-33.6 26.133-59.733 59.733-59.733h238.933v-72.8c-138.134-39.199-238.933-166.133-238.933-315.466 0-111.998 54.133-209.067 136.266-268.8-5.6 0-11.2 0-16.8 0h-477.867c-67.2 0-119.467 52.265-119.467 119.467v716.8zM486.4 669.867v238.933l238.933-238.933h-238.933zM546.133 221.867c0 147.467 119.467 268.8 268.8 268.8 147.47 0 268.8-121.333 268.8-268.8 0-149.333-121.33-268.8-268.8-268.8-149.333 0-268.8 119.467-268.8 268.8zM925.068 289.067c11.196 11.2 11.196 31.733 0 42.933-11.203 11.2-31.737 11.2-42.933 0l-67.202-69.064-69.065 69.064c-11.203 11.2-31.737 11.2-42.933 0-11.203-11.2-11.203-31.733 0-42.933l69.065-67.2-69.065-69.065c-11.203-11.203-11.203-31.737 0-42.933 11.196-11.203 31.73-11.203 42.933 0l69.065 69.065 67.202-69.065c11.196-11.203 31.73-11.203 42.933 0 11.196 11.196 11.196 31.73 0 42.933l-69.065 69.065 69.065 67.2z" />
<glyph unicode="&#xe914;" d="M884.364 448c0-205.65-166.713-372.364-372.364-372.364s-372.364 166.713-372.364 372.364c0 205.651 166.713 372.364 372.364 372.364s372.364-166.713 372.364-372.364z" />
<glyph unicode="&#xe915;" d="M720.458 593.721c11.931-12.3 11.627-31.946-0.676-43.877l-256-248.242c-12.034-11.67-31.167-11.67-43.2 0l-116.365 112.839c-12.303 11.928-12.605 31.573-0.675 43.877s31.576 12.605 43.877 0.676l94.763-91.89 234.4 227.294c12.3 11.931 31.946 11.627 43.877-0.676z" />
<glyph unicode="&#xe916;" glyph-name="ic_update_func" d="M146.462 322.462l561.231 561.231c46.153 46.154 121.842 46.154 168.001 0l71.995-72c5.545-5.538 11.083-12.924 14.777-18.462 31.382-46.153 25.844-108.923-14.777-149.538l-561.227-561.229c-1.846-1.851-5.538-3.694-7.385-7.389-18.462-14.769-38.769-25.844-60.923-33.225l-223.385-64.622c-14.769-5.537-31.384-1.843-42.461 11.083-12.923 11.075-16.615 27.687-12.923 42.457l66.462 223.386c7.385 25.847 22.154 49.847 40.616 68.308zM190.77 228.308l-42.462-144.001 144 42.464c11.077 3.694 22.154 9.232 31.385 18.456l422.769 422.773-116.307 114.461-420.923-422.769c-1.846 0-1.846-1.846-3.692-3.693-7.385-7.385-11.077-16.616-14.769-27.692z" />
<glyph unicode="&#xe917;" d="M458.256 789.333c23.887 41.374 83.605 41.374 107.492 0l322.476-558.545c23.887-41.373-5.973-93.091-53.748-93.091h-644.952c-47.774 0-77.633 51.718-53.746 93.091l322.477 558.545z" />
<glyph unicode="&#xe918;" d="M512 665.212c17.138 0 31.030-13.893 31.030-31.030v-248.242c0-17.138-13.892-31.030-31.030-31.030s-31.030 13.892-31.030 31.030v248.242c0 17.137 13.892 31.030 31.030 31.030z" />
<glyph unicode="&#xe919;" d="M480.97 251.47c0 17.138 13.892 31.030 31.030 31.030h0.552c17.138 0 31.030-13.892 31.030-31.030s-13.892-31.030-31.030-31.030h-0.552c-17.138 0-31.030 13.892-31.030 31.030z" />
<glyph unicode="&#xe91a;" glyph-name="ic-arr-dbl-left" d="M471.142 704c11.228 0 21.208-3.43 28.694-10.291 16.218-13.722 16.218-37.736 0-51.457l-210.838-194.394 210.838-193.252c16.218-13.722 16.218-37.734 0-51.456-14.971-14.867-41.169-14.867-56.14 0l-239.532 219.551c-16.218 13.722-16.218 37.735 0 51.457l239.532 219.551c7.485 6.861 17.466 10.291 27.446 10.291zM727.142 704c11.226 0 21.21-3.43 28.691-10.291 16.224-13.722 16.224-37.736 0-51.457l-210.836-194.394 210.836-193.252c16.224-13.722 16.224-37.734 0-51.456-14.97-14.867-41.165-14.867-56.141 0l-239.529 219.551c-16.218 13.722-16.218 37.735 0 51.457l239.529 219.551c7.488 6.861 17.472 10.291 27.45 10.291z" />
<glyph unicode="&#xe91b;" glyph-name="ic-arr-dbl-right" d="M550.454 688.941c-10.568 0-19.961-3.229-27.006-9.686-15.264-12.915-15.264-35.516 0-48.43l198.436-182.959-198.436-181.885c-15.264-12.914-15.264-35.515 0-48.429 14.090-13.993 38.748-13.993 52.838 0l225.44 206.637c15.27 12.915 15.27 35.515 0 48.43l-225.44 206.637c-7.045 6.457-16.438 9.686-25.832 9.686zM309.513 688.941c-10.568 0-19.961-3.229-27.006-9.686-15.264-12.915-15.264-35.516 0-48.43l198.436-182.959-198.436-181.885c-15.264-12.914-15.264-35.515 0-48.429 14.090-13.993 38.748-13.993 52.838 0l225.442 206.637c15.264 12.914 15.264 35.515 0 48.43l-225.442 206.637c-7.045 6.457-16.438 9.686-25.832 9.686z" />
<glyph unicode="&#xe91c;" glyph-name="ic-arr-up-2" d="M32.727 298.909l416.727 399.272c13.091 10.909 26.183 17.455 39.273 17.455s24-4.364 34.909-13.091l416.731-399.273c21.811-21.818 21.811-54.545 2.178-74.181-19.637-21.819-52.364-21.819-74.182-2.182l-379.636 362.181-384-366.545c-19.636-19.636-54.546-19.636-74.182 2.182s-19.636 54.546 2.182 74.182z" />
<glyph unicode="&#xe91d;" glyph-name="ic-bin" horiz-adv-x="887" d="M252 875.2c9.333 20.534 29.867 33.6 52.266 33.6h225.866c22.4 0 42.934-13.067 52.267-33.6l14.933-26.133h179.2c31.73 0 59.733-28 59.733-59.733 0-33.6-28.003-59.733-59.733-59.733h-716.8c-33.6 0-59.733 26.133-59.733 59.733 0 31.733 26.133 59.733 59.733 59.733h179.2l13.067 26.133zM57.867 669.867h718.667v-597.333c0-67.202-54.135-119.467-119.467-119.467h-479.733c-65.334 0-119.467 52.265-119.467 119.467v597.333zM207.2 520.533v-418.133c0-16.8 14.933-29.867 29.867-29.867 16.8 0 29.867 13.066 29.867 29.867v418.133c0 14.933-13.067 29.867-29.867 29.867-14.933 0-29.867-14.933-29.867-29.867zM386.4 520.533v-418.133c0-16.8 14.933-29.867 29.867-29.867 16.8 0 31.733 13.066 31.733 29.867v418.133c0 14.933-14.933 29.867-31.733 29.867-14.933 0-29.867-14.933-29.867-29.867zM567.467 520.533v-418.133c0-16.8 13.067-29.867 29.867-29.867 14.933 0 29.867 13.066 29.867 29.867v418.133c0 14.933-14.933 29.867-29.867 29.867-16.8 0-29.867-14.933-29.867-29.867z" />
<glyph unicode="&#xe91e;" glyph-name="ic-calc" d="M512 285.538c24 0 44.308 18.462 44.308 44.308 0 24-20.307 44.308-44.308 44.308-25.846 0-44.308-20.307-44.308-44.308 0-25.846 18.462-44.308 44.308-44.308zM512 448c24 0 44.308 18.462 44.308 44.308 0 24-20.307 44.308-44.308 44.308-25.846 0-44.308-20.307-44.308-44.308 0-25.846 18.462-44.308 44.308-44.308zM674.462 285.538c24 0 44.308 18.462 44.308 44.308 0 24-20.307 44.308-44.308 44.308-25.846 0-44.308-20.307-44.308-44.308 0-25.846 18.462-44.308 44.308-44.308zM674.462 448c24 0 44.308 18.462 44.308 44.308 0 24-20.307 44.308-44.308 44.308-25.846 0-44.308-20.307-44.308-44.308 0-25.846 18.462-44.308 44.308-44.308zM674.462 123.077c24 0 44.308 18.464 44.308 44.308 0 24-20.307 44.308-44.308 44.308-25.846 0-44.308-20.307-44.308-44.308 0-25.844 18.462-44.308 44.308-44.308zM349.538 123.077h147.692c24 0 44.308 18.464 44.308 44.308 0 24-20.307 44.308-44.308 44.308h-147.692c-25.846 0-44.308-20.307-44.308-44.308 0-25.844 18.462-44.308 44.308-44.308zM748.308 920.615h-472.615c-66.462 0-118.154-53.539-118.154-118.154v-708.923c0-66.465 51.692-118.154 118.154-118.154h472.615c64.615 0 118.154 51.688 118.154 118.154v708.923c0 64.615-53.539 118.154-118.154 118.154zM777.846 93.538c0-16.612-14.769-29.538-29.538-29.538h-472.615c-16.616 0-29.538 12.926-29.538 29.538v502.154h531.692v-502.154zM777.846 684.308h-531.692v118.154c0 14.769 12.923 29.538 29.538 29.538h472.615c14.769 0 29.538-14.769 29.538-29.538v-118.154zM349.538 448c24 0 44.308 18.462 44.308 44.308 0 24-20.307 44.308-44.308 44.308-25.846 0-44.308-20.307-44.308-44.308 0-25.846 18.462-44.308 44.308-44.308zM349.538 285.538c24 0 44.308 18.462 44.308 44.308 0 24-20.307 44.308-44.308 44.308-25.846 0-44.308-20.307-44.308-44.308 0-25.846 18.462-44.308 44.308-44.308z" />
<glyph unicode="&#xe91f;" glyph-name="ic-check" horiz-adv-x="1092" d="M0 789.333c0 65.333 52.267 119.467 119.467 119.467h298.667v-238.933c0-33.6 26.133-59.733 59.733-59.733h238.933v-72.8c-138.134-39.199-238.933-166.133-238.933-315.466 0-111.998 54.133-209.067 136.266-268.8-5.6 0-11.2 0-16.8 0h-477.867c-67.2 0-119.467 52.265-119.467 119.467v716.8zM477.867 669.867v238.933l238.933-238.933h-238.933zM1075.2 221.867c0-149.333-121.33-268.8-268.8-268.8-149.333 0-268.8 119.467-268.8 268.8 0 147.467 119.467 268.8 268.8 268.8 147.47 0 268.8-121.333 268.8-268.8zM888.532 302.133l-111.998-113.867-54.135 54.135c-11.196 11.196-31.73 11.196-42.932 0-11.2-11.203-11.2-31.737 0-42.933l74.669-74.67c11.196-11.196 31.73-11.196 42.933 0l134.397 134.403c11.203 11.196 11.203 31.732 0 42.932-11.196 11.2-31.73 11.2-42.933 0z" />
<glyph unicode="&#xe920;" glyph-name="ic-confuse" horiz-adv-x="1092" d="M0 789.333c0 65.333 52.267 119.467 119.467 119.467h298.667v-238.933c0-33.6 26.133-59.733 59.733-59.733h238.933v-72.8c-138.134-39.199-238.933-166.133-238.933-315.466 0-111.998 54.133-209.067 136.266-268.8-5.6 0-11.2 0-16.8 0h-477.867c-67.2 0-119.467 52.265-119.467 119.467v716.8zM477.867 669.867v238.933l238.933-238.933h-238.933zM537.6 221.867c0 147.467 119.467 268.8 268.8 268.8 147.47 0 268.8-121.333 268.8-268.8 0-149.333-121.33-268.8-268.8-268.8-149.333 0-268.8 119.467-268.8 268.8zM916.535 289.067c11.196 11.2 11.196 31.733 0 42.933-11.203 11.2-31.737 11.2-42.933 0l-67.202-69.064-69.065 69.064c-11.203 11.2-31.737 11.2-42.933 0-11.203-11.2-11.203-31.733 0-42.933l69.065-67.2-69.065-69.065c-11.203-11.203-11.203-31.737 0-42.933 11.196-11.203 31.73-11.203 42.933 0l69.065 69.065 67.202-69.065c11.196-11.203 31.73-11.203 42.933 0 11.196 11.196 11.196 31.73 0 42.933l-69.065 69.065 69.065 67.2z" />
<glyph unicode="&#xe921;" glyph-name="ic-destroy" horiz-adv-x="956" d="M0 430.933c0 263.2 212.8 477.867 477.867 477.867 263.202 0 477.867-214.667 477.867-477.867 0-265.066-214.665-477.867-477.867-477.867-265.066 0-477.867 212.801-477.867 477.867zM326.667 518.667l87.733-87.734-87.733-87.734c-18.667-18.666-18.667-46.666 0-63.466 16.8-18.668 44.8-18.668 61.6 0l87.734 87.733 89.6-87.733c16.8-18.668 44.8-18.668 61.6 0 18.667 16.8 18.667 44.8 0 63.466l-87.734 87.734 87.734 87.734c18.667 16.8 18.667 44.8 0 63.466-16.8 16.8-44.8 16.8-61.6 0l-89.6-89.6-87.734 89.6c-16.8 16.8-44.8 16.8-61.6 0-18.667-18.666-18.667-46.666 0-63.466z" />
<glyph unicode="&#xe922;" glyph-name="ic-download" horiz-adv-x="956" d="M896 251.733h-250.133l-84-85.866c-22.4-22.398-52.267-33.601-84-33.601-33.6 0-63.467 11.203-85.866 33.601l-84 85.866h-248.267c-33.6 0-59.733-28.003-59.733-59.733v-179.2c0-33.601 26.133-59.733 59.733-59.733h836.267c31.73 0 59.733 26.132 59.733 59.733v179.2c0 31.73-28.003 59.733-59.733 59.733zM806.4 57.597c-26.132 0-44.803 18.671-44.803 44.803 0 24.269 18.671 44.803 44.803 44.803 24.269 0 44.803-20.535 44.803-44.803 0-26.132-20.535-44.803-44.803-44.803zM434.933 208.8c11.201-11.203 26.134-16.8 42.934-16.8 14.933 0 29.867 5.598 41.066 16.8l238.936 238.933c24.262 22.4 24.262 61.6 0 84-22.405 24.267-61.604 24.267-84.003 0l-136.266-136.266v453.6c0 31.733-28 59.733-59.733 59.733-33.6 0-59.733-28-59.733-59.733v-453.6l-138.134 136.266c-22.4 24.267-61.6 24.267-84 0-24.267-22.4-24.267-61.6 0-84l238.933-238.933z" />
<glyph unicode="&#xe923;" glyph-name="ic-function" d="M310.154 910.769c56 0 103.385-47.384 103.385-103.385v-344.615c0-58.154-47.384-103.385-103.385-103.385h-206.769c-58.154 0-103.385 45.231-103.385 103.385v344.615c0 56 45.231 103.385 103.385 103.385h206.769zM861.538 497.231c55.997 0 103.385-47.384 103.385-103.385v-344.615c0-58.155-47.388-103.385-103.385-103.385h-206.769c-58.154 0-103.385 45.229-103.385 103.385v344.615c0 56 45.231 103.385 103.385 103.385h206.769zM0 118.154c0 56 45.231 103.385 103.385 103.385h206.769c56 0 103.385-47.384 103.385-103.385v-68.923c0-58.155-47.384-103.385-103.385-103.385h-206.769c-58.154 0-103.385 45.229-103.385 103.385v68.923zM861.538 910.769c55.997 0 103.385-47.384 103.385-103.385v-68.923c0-58.154-47.388-103.385-103.385-103.385h-206.769c-58.154 0-103.385 45.231-103.385 103.385v68.923c0 56 45.231 103.385 103.385 103.385h206.769z" />
<glyph unicode="&#xe924;" glyph-name="ic-import-file" horiz-adv-x="751" d="M477.867 908.8v-238.933h238.933l-238.933 238.933zM418.133 669.867v238.933h-328.533c-50.4 0-89.6-41.066-89.6-89.6v-776.533c0-50.401 39.2-89.6 89.6-89.6h537.6c48.534 0 89.6 39.199 89.6 89.6v567.467h-238.933c-33.6 0-59.733 26.133-59.733 59.733zM537.6 264.8c-7.467-9.332-18.667-13.066-29.867-13.066-13.067 0-24.267 3.734-31.733 13.066l-72.8 72.8v-190.396c0-26.139-20.533-44.803-44.8-44.803-26.133 0-44.8 18.664-44.8 44.803v190.396l-74.667-72.8c-16.8-18.664-44.8-18.664-61.6 0-18.667 16.8-18.667 44.801 0 63.467l149.333 149.333c16.8 16.8 44.8 16.8 61.6 0l149.333-149.333c18.667-18.666 18.667-46.666 0-63.467z" />
<glyph unicode="&#xe925;" glyph-name="ic-logout" d="M336 96h-144c-54 0-96 42-96 96v512c0 52 42 96 96 96h144c26 0 48 20 48 48 0 26-22 48-48 48h-144c-108 0-192-86-192-192v-512c0-108 84-192 192-192h144c26 0 48 20.002 48 48 0 26-22 48-48 48zM1006.003 482l-304.003 268c-20 18-48 22.001-72 12-24-12-38-34-38-60v-112h-240c-46 0-80-34-80-80v-128c0-44 34-80 80-80h240v-110c0-26 14-48 38-60 8-4 18-6.001 28-6.001 16 0 32 6.001 44 18l304.003 266c11.998 10 17.997 22 17.997 36s-5.999 26-17.997 36zM688 260v140h-320v96h320v140l213.999-188-213.999-188z" />
<glyph unicode="&#xe926;" glyph-name="ic-nav-fill" d="M64 96c0-52.998 42.98-96 96-96h704c53.018 0 96 42.982 96 96v544h-896v-544zM320 488c0 13.2 10.8 24 24 24h336c13.197 0 24-10.8 24-24v-16c0-13.2-10.803-24-24-24h-336c-13.2 0-24 10.8-24 24v16zM960 896h-896c-35.38 0-64-28.62-64-64v-96c0-17.6 14.376-32 32-32h960c17.6 0 32 14.4 32 32v96c0 35.38-28.602 64-64 64z" />
<glyph unicode="&#xe927;" glyph-name="ic-perform-all" d="M477.867 727.734v-595.467c0-37.335 28-59.733 59.733-59.733 13.067 0 26.133 3.734 37.334 13.066l358.401 296.8c27.996 24.267 27.996 67.2 0 91.467l-358.401 296.8c-11.201 13.067-24.267 18.667-37.334 18.667-31.733 0-59.733-24.267-59.733-61.6zM567.467 664.267l281.866-233.333-281.866-235.2v468.533zM0 727.734v-595.467c0-22.398 11.2-42.933 29.867-52.265 9.333-5.605 18.667-7.468 29.867-7.468s20.533 1.864 31.733 9.332l304.267 194.135c22.4 13.067 28 41.066 14.933 61.6s-41.066 26.133-61.6 13.067l-259.467-164.267v487.2l259.467-164.267c20.533-13.067 48.534-7.467 61.6 13.066s7.467 48.534-14.933 61.6l-304.267 194.133c-18.666 13.067-42.933 13.067-61.6 3.733-18.667-11.2-29.867-31.733-29.867-54.133z" />
<glyph unicode="&#xe928;" glyph-name="ic-perform" d="M895.693 516.615l-620.308 379.077c-17.231 8.615-36.615 15.077-55.999 15.077-58.154-2.154-101.231-49.539-101.231-103.385v-758.154c0-55.997 43.077-103.385 103.385-103.385 17.231 0 36.615 4.309 53.846 15.076l620.308 379.078c30.153 17.231 49.538 51.692 49.538 88.307 0 34.462-19.385 68.923-49.538 88.307zM221.538 49.231l-2.154 756 622.461-376.923-620.308-379.077z" />
<glyph unicode="&#xe929;" glyph-name="ic-report" horiz-adv-x="956" d="M914.664 832.267c41.069-41.067 41.069-106.4 0-147.467l-55.999-56-182.931 182.933 56.003 56.001c41.062 41.066 106.394 41.066 147.463 0l35.465-35.467zM321.066 457.066l311.734 311.734 182.932-182.934-311.732-311.735c-11.2-11.196-26.133-20.535-41.066-26.132l-166.133-54.135c-16.8-5.598-33.6-1.864-44.8 11.203-13.067 11.203-16.8 29.867-11.201 44.803l54.133 166.13c5.6 14.933 14.933 29.867 26.133 41.066zM358.4 789.333c31.733 0 59.733-28 59.733-59.733 0-33.6-28-59.733-59.733-59.733h-179.2c-33.6 0-59.733-28-59.733-59.733v-477.867c0-33.601 26.133-59.733 59.733-59.733h477.867c31.73 0 59.733 26.132 59.733 59.733v179.2c0 31.733 26.132 59.733 59.733 59.733 31.73 0 59.733-28 59.733-59.733v-179.2c0-98.932-80.268-179.2-179.2-179.2h-477.867c-100.8 0-179.2 80.268-179.2 179.2v477.867c0 98.933 78.4 179.2 179.2 179.2h179.2z" />
<glyph unicode="&#xe92a;" glyph-name="ic-search-gray" d="M936.002 76.142l-248.859 248.858c53.86 65 83.571 148.571 83.571 239.571 0 211.714-174.571 386.286-386.285 386.286-213.571 0-384.429-174.572-384.429-386.286 0-213.571 172.714-386.286 384.429-386.286 89.143 0 172.714 29.718 239.571 83.572l248.858-248.86c9.282-9.282 20.429-12.997 33.426-12.997 11.147 0 22.287 3.716 29.718 12.997 18.571 16.713 18.571 44.573 0 63.144zM89.143 564.571c0 163.428 131.857 297.143 297.143 297.143 163.428 0 297.143-133.715 297.143-297.143 0-165.286-133.715-297.143-297.143-297.143-165.286 0-297.143 131.857-297.143 297.143z" />
<glyph unicode="&#xe92b;" glyph-name="ic-trans-info" horiz-adv-x="956" d="M477.867 908.8c-265.066 0-477.867-214.667-477.867-477.867 0-265.066 212.8-477.867 477.867-477.867 263.202 0 477.867 212.801 477.867 477.867 0 263.2-214.665 477.867-477.867 477.867zM477.867 669.867c31.733 0 59.733-28 59.733-59.733 0-33.6-28-59.733-59.733-59.733-33.6 0-59.733 26.133-59.733 59.733 0 31.733 26.133 59.733 59.733 59.733zM552.533 192h-149.333c-26.133 0-44.8 18.664-44.8 44.797 0 24.269 18.667 44.803 44.8 44.803h29.867v119.467h-14.933c-26.133 0-44.8 18.667-44.8 44.8 0 24.267 18.667 44.8 44.8 44.8h59.733c24.267 0 44.8-20.533 44.8-44.8v-164.267h29.867c24.267 0 44.8-20.535 44.8-44.803 0-26.132-20.533-44.797-44.8-44.797z" />
<glyph unicode="&#xe92c;" glyph-name="ic-add-dk" d="M273.715-64c-22.456 0-42.417 6.861-57.388 20.582-32.437 27.444-32.437 75.471 0 102.915l421.677 388.788-421.677 386.502c-32.437 27.444-32.437 75.471 0 102.915 29.942 29.731 82.339 29.731 112.281 0l479.064-439.102c32.436-27.444 32.436-75.47 0-102.915l-479.064-439.103c-14.971-13.722-34.932-20.582-54.893-20.582z" />
<glyph unicode="&#xe92d;" glyph-name="ic-add" horiz-adv-x="751" d="M681.333 733.334l-140 140c-22.4 22.4-52.267 35.467-84 35.467h-337.867c-67.2 0-119.467-54.133-119.467-119.467v-716.8c0-67.202 52.267-119.467 119.467-119.467h477.867c65.333 0 119.467 52.265 119.467 119.467v576.8c0 31.733-13.066 61.6-35.467 84zM627.2 72.533c0-16.8-14.933-29.867-29.867-29.867h-477.867c-16.8 0-29.867 13.066-29.867 29.867v714.934c0 16.8 13.067 29.867 29.867 29.867h298.667v-147.467c0-33.6 26.133-59.733 59.733-59.733h149.333v-537.6zM403.2 490.667c0 24.267-20.533 44.8-44.8 44.8-26.133 0-44.8-20.533-44.8-44.8v-104.533h-104.533c-26.133 0-44.8-20.533-44.8-44.8s18.667-42.934 44.8-42.934h104.533v-104.536c0-27.996 18.667-46.66 44.8-46.66 24.267 0 44.8 18.664 44.8 42.933v106.397h104.533c24.267 0 44.8 20.533 44.8 44.8 0 22.4-20.533 42.934-44.8 42.934h-104.533v106.4z" />
<glyph unicode="&#xe92e;" glyph-name="ic-arr-down" d="M970.667 497.333l-382-366c-12-9.999-24-14-34-14-12 0-24 4-34 12l-384 368c-20 18-20 50-2 68 18 20 50 20 68 2l352-336 350.003 336c17.997 18 49.997 18 67.994-2 18.005-18 18.005-50-1.997-68z" />
<glyph unicode="&#xe92f;" glyph-name="ic-arr-down2" d="M965.818 594.909l-416.727-399.272c-13.091-10.908-26.182-15.272-37.091-15.272-13.090 0-26.182 4.364-37.091 13.090l-418.909 401.455c-21.818 19.637-21.818 54.546-2.182 74.182 19.636 21.818 54.545 21.818 74.182 2.182l384-366.545 381.818 366.545c19.637 19.636 54.546 19.636 74.179-2.182 19.642-19.636 19.642-54.546-2.178-74.182z" />
<glyph unicode="&#xe932;" d="M438.48 529.374l-39.806 0.081c-90.793 0.217-169.614-73.554-170.238-162.909v-102.906c0-21.448-2.715-42.381-14.418-60.221l-7.792-11.894c-11.865-18.029 0.896-42.192 22.21-42.192h380.934c21.315 0 34.050 24.163 22.211 42.192l-7.792 11.894c-11.677 17.839-14.42 38.8-14.42 60.248v102.85c-1.086 89.383-80.095 162.639-170.89 162.856v0z" />
<glyph unicode="&#xe933;" d="M500.364 149.333c0-21.603-8.583-42.322-23.856-57.598-15.276-15.273-35.995-23.856-57.598-23.856s-42.322 8.583-57.598 23.856c-15.273 15.276-23.856 35.995-23.856 57.598" />
<glyph unicode="&#xe934;" d="M418.909 610.909c14.401 0 28.213-5.721 38.397-15.905s15.906-23.997 15.906-38.398v-27.152h-108.606v27.152c0 14.401 5.722 28.214 15.906 38.398s23.996 15.905 38.397 15.905z" />
<glyph unicode="&#xe935;" d="M992.97 572.121c0-171.376-138.927-310.303-310.303-310.303s-310.303 138.927-310.303 310.303c0 171.376 138.927 310.303 310.303 310.303s310.303-138.927 310.303-310.303z" />
<glyph unicode="&#xe936;" d="M438.545 476.182h3.454c19.394 0 35.154 2.728 47.275 8.183s21.454 12.788 27.999 22c6.547 9.21 11.031 19.574 13.455 31.089 2.423 11.636 3.637 23.577 3.637 35.819v40.545c0 12-1.393 22.667-4.183 32-2.666 9.333-6.423 17.151-11.27 23.455-4.729 6.303-10.122 11.091-16.182 14.364s-12.487 4.909-19.273 4.909c-7.758 0-14.727-1.576-20.911-4.727-6.060-3.030-11.211-7.333-15.453-12.909-4.121-5.576-7.274-12.121-9.455-19.636s-3.274-15.697-3.274-24.545c0-7.879 0.971-15.515 2.911-22.909s4.909-14.060 8.909-20c4-5.939 8.971-10.667 14.91-14.182 6.060-3.395 13.151-5.089 21.271-5.089 7.516 0 14.547 1.452 21.091 4.363 6.668 3.029 12.546 7.090 17.638 12.181 5.21 5.212 9.334 11.091 12.362 17.636 3.153 6.546 4.971 13.394 5.455 20.545h15.999c0-10.061-1.998-20-5.998-29.818-3.879-9.697-9.334-18.547-16.365-26.546s-15.273-14.423-24.728-19.273c-9.455-4.726-19.757-7.090-30.909-7.090-13.089 0-24.424 2.544-34 7.637s-17.455 11.878-23.636 20.365c-6.060 8.484-10.606 17.938-13.635 28.362-2.911 10.546-4.366 21.212-4.366 32 0 12.606 1.759 24.424 5.275 35.455 3.513 11.030 8.726 20.727 15.636 29.091 6.907 8.485 15.453 15.091 25.634 19.818 10.305 4.727 22.184 7.091 35.638 7.091 15.152 0 28.061-3.030 38.726-9.091 10.668-6.061 19.335-14.182 26-24.364 6.789-10.182 11.757-21.636 14.91-34.364 3.15-12.727 4.726-25.818 4.726-39.273v-12.182c0-13.697-0.909-27.635-2.728-41.819-1.697-14.060-5.030-27.515-9.998-40.364-4.85-12.847-11.94-24.362-21.274-34.543-9.334-10.060-21.513-18.063-36.544-24.002-14.91-5.818-33.333-8.726-55.274-8.726h-3.454v28.545zM648 476.182h3.454c19.394 0 35.154 2.728 47.275 8.183s21.454 12.788 27.999 22c6.547 9.21 11.031 19.574 13.455 31.089 2.423 11.636 3.637 23.577 3.637 35.819v40.545c0 12-1.393 22.667-4.183 32-2.666 9.333-6.423 17.151-11.27 23.455-4.729 6.303-10.122 11.091-16.182 14.364s-12.487 4.909-19.273 4.909c-7.758 0-14.727-1.576-20.911-4.727-6.060-3.030-11.211-7.333-15.453-12.909-4.121-5.576-7.274-12.121-9.455-19.636s-3.274-15.697-3.274-24.545c0-7.879 0.971-15.515 2.911-22.909s4.909-14.060 8.909-20c4-5.939 8.971-10.667 14.91-14.182 6.060-3.395 13.151-5.089 21.271-5.089 7.516 0 14.547 1.452 21.091 4.363 6.668 3.029 12.546 7.090 17.638 12.181 5.21 5.212 9.334 11.091 12.362 17.636 3.153 6.546 4.971 13.394 5.455 20.545h15.999c0-10.061-1.998-20-5.998-29.818-3.879-9.697-9.334-18.547-16.365-26.546s-15.273-14.423-24.728-19.273c-9.455-4.726-19.757-7.090-30.909-7.090-13.089 0-24.424 2.544-34 7.637s-17.455 11.878-23.636 20.365c-6.060 8.484-10.606 17.938-13.635 28.362-2.911 10.546-4.366 21.212-4.366 32 0 12.606 1.759 24.424 5.275 35.455 3.513 11.030 8.726 20.727 15.636 29.091 6.907 8.485 15.453 15.091 25.634 19.818 10.305 4.727 22.184 7.091 35.638 7.091 15.152 0 28.061-3.030 38.726-9.091 10.668-6.061 19.335-14.182 26-24.364 6.789-10.182 11.757-21.636 14.91-34.364 3.15-12.727 4.726-25.818 4.726-39.273v-12.182c0-13.697-0.909-27.635-2.728-41.819-1.697-14.060-5.030-27.515-9.998-40.364-4.85-12.847-11.94-24.362-21.274-34.543-9.334-10.060-21.513-18.063-36.544-24.002-14.91-5.818-33.333-8.726-55.274-8.726h-3.454v28.545zM997.637 590v-31.638h-181.456v31.638h181.456zM923.819 667.273v-192.726h-33.637v192.726h33.637z" />
<glyph unicode="&#xe937;" glyph-name="ic-calendar-clock" d="M746.667 666.667c0 43.333-36.667 80-80 80h-80v53.333c0 28.333-25 53.333-53.333 53.333-30 0-53.333-25-53.333-53.333v-53.333h-213.333v53.333c0 28.333-25 53.333-53.333 53.333-30 0-53.333-25-53.333-53.333v-53.333h-80c-45 0-80-36.667-80-80v-80h746.667v80zM720 480c-133.333 0-240-108.333-240-240 0-133.333 106.667-240 240-240 131.667 0 240 106.667 240 240 0 131.667-108.333 240-240 240zM800 213.333h-91.667c-8.334 0-15 6.666-15 15v118.333c0 13.333 11.667 26.667 26.667 26.667 13.333 0 26.667-13.333 26.667-26.667v-80h53.333c13.333 0 26.667-13.333 26.667-26.667 0-15-13.333-26.667-26.667-26.667zM426.667 240c0 161.667 130 293.333 293.333 293.333h-720v-453.333c0-44.996 35-80 80-80h471.666c-76.666 51.669-125 140-125 240z" />
<glyph unicode="&#xe938;" glyph-name="ic-calendar" d="M379.077 802.462h265.846v73.846c0 24 18.462 44.308 44.308 44.308 24 0 44.308-20.308 44.308-44.308v-73.846h73.846c64.614 0 118.154-53.539 118.154-118.154v-590.769c0-66.465-53.539-118.154-118.154-118.154h-590.769c-66.462 0-118.154 51.688-118.154 118.154v590.769c0 64.615 51.692 118.154 118.154 118.154h73.846v73.846c0 24 18.462 44.308 44.308 44.308 24 0 44.308-20.308 44.308-44.308v-73.846zM187.077 93.538c0-16.612 12.923-29.538 29.538-29.538h590.769c14.769 0 29.538 12.926 29.538 29.538v472.615h-649.846v-472.615z" />
<glyph unicode="&#xe939;" glyph-name="ic-cancel" d="M512 920.615c-262.153 0-472.615-212.307-472.615-472.615 0-262.153 210.462-472.615 472.615-472.615 260.308 0 472.615 210.462 472.615 472.615 0 260.308-212.307 472.615-472.615 472.615zM512 64c-212.307 0-384 171.693-384 384 0 210.462 171.693 384 384 384 210.462 0 384-173.538 384-384 0-212.307-173.538-384-384-384zM702.154 673.231c-18.461 14.769-46.154 12.923-62.769-5.539l-127.385-151.384-129.23 151.384c-16.616 18.462-44.308 20.308-62.77 5.539-18.462-16.616-20.307-44.308-5.538-62.77l138.461-162.462-138.461-164.308c-14.769-18.461-12.924-46.154 5.538-62.769 9.231-7.385 18.462-9.231 27.692-9.231 11.077 0 24 3.693 33.231 14.769l131.077 151.385 127.385-151.385c9.231-11.077 22.154-14.769 35.077-14.769 9.231 0 18.462 1.846 27.692 9.231 18.462 16.615 20.308 44.308 5.539 62.769l-138.462 164.308 138.462 162.462c14.769 18.462 12.923 46.154-5.539 62.77z" />
<glyph unicode="&#xe93a;" glyph-name="ic-close" d="M79.701 911.729c26.66 26.66 70.785 25.76 98.556-2.011l804.528-804.528c27.776-27.776 28.672-71.902 2.014-98.56s-70.784-25.754-98.56 2.014l-804.526 804.529c-27.771 27.771-28.671 71.896-2.011 98.556zM48.254 15.735c-26.66 26.658-25.76 70.784 2.011 98.552l804.528 804.531c27.776 27.771 71.902 28.671 98.56 2.011s25.754-70.785-2.014-98.556l-804.529-804.533c-27.771-27.767-71.895-28.672-98.555-2.005z" />
<glyph unicode="&#xe93b;" glyph-name="ic-confirm" d="M488 292.923c-20.307-20.307-51.692-20.307-72 0l-118.154 118.154c-20.307 20.307-20.307 51.692 0 72s51.692 20.307 72 0l83.077-81.231 199.385 199.385c20.307 20.307 51.692 20.307 72 0s20.307-51.692 0-72l-236.308-236.308zM984.615 448c0-262.153-212.307-472.615-472.615-472.615-262.153 0-472.615 210.462-472.615 472.615 0 260.308 210.462 472.615 472.615 472.615 260.308 0 472.615-212.307 472.615-472.615zM512 832c-212.307 0-384-173.538-384-384 0-212.307 171.693-384 384-384 210.462 0 384 171.693 384 384 0 210.462-173.538 384-384 384z" />
<glyph unicode="&#xe93e;" glyph-name="ic-delete" horiz-adv-x="887" d="M298.667 162.133c0-16.8-14.933-29.867-29.867-29.867-16.8 0-29.867 13.066-29.867 29.867v388.267c0 14.933 13.067 29.867 29.867 29.867 14.933 0 29.867-14.933 29.867-29.867v-388.267zM448 162.133c0-16.8-14.933-29.867-29.867-29.867-16.8 0-29.867 13.066-29.867 29.867v388.267c0 14.933 13.067 29.867 29.867 29.867 14.933 0 29.867-14.933 29.867-29.867v-388.267zM597.333 162.133c0-16.8-14.933-29.867-29.867-29.867-16.8 0-29.867 13.066-29.867 29.867v388.267c0 14.933 13.067 29.867 29.867 29.867 14.933 0 29.867-14.933 29.867-29.867v-388.267zM591.733 862.134l69.067-102.667h130.67c24.262 0 44.797-20.533 44.797-44.8 0-26.133-20.535-44.8-44.797-44.8h-14.937v-567.467c0-84.002-67.202-149.333-149.333-149.333h-418.133c-84 0-149.333 65.331-149.333 149.333v567.467h-14.933c-26.133 0-44.8 18.667-44.8 44.8 0 24.267 18.667 44.8 44.8 44.8h128.8l69.067 102.667c18.666 28 52.266 46.666 87.733 46.666h173.6c35.467 0 69.067-18.667 87.734-46.666zM281.867 759.467h270.666l-35.467 52.266c-1.866 3.734-7.467 7.467-13.067 7.467h-173.6c-5.6 0-11.2-3.734-13.066-7.467l-35.467-52.266zM149.333 102.4c0-33.601 26.133-59.733 59.733-59.733h418.133c31.733 0 59.733 26.132 59.733 59.733v567.467h-537.6v-567.467z" />
<glyph unicode="&#xe93f;" glyph-name="ic-details" horiz-adv-x="956" d="M477.867 908.8c-265.066 0-477.867-214.667-477.867-477.867 0-265.066 212.8-477.867 477.867-477.867 263.202 0 477.867 212.801 477.867 477.867 0 263.2-214.665 477.867-477.867 477.867zM477.867 42.667c-214.667 0-388.267 173.602-388.267 388.267 0 212.8 173.6 388.267 388.267 388.267 212.801 0 388.267-175.466 388.267-388.267 0-214.665-175.466-388.267-388.267-388.267zM552.533 281.6h-29.867v164.267c0 24.267-20.533 44.8-44.8 44.8h-59.733c-26.133 0-44.8-20.533-44.8-44.8 0-26.133 18.667-44.8 44.8-44.8h14.933v-119.467h-29.867c-26.133 0-44.8-20.535-44.8-44.803 0-26.132 18.667-44.797 44.8-44.797h149.333c24.267 0 44.8 18.664 44.8 44.797 0 24.269-20.533 44.803-44.8 44.803zM477.867 550.4c31.733 0 59.733 26.133 59.733 59.733 0 31.733-28 59.733-59.733 59.733-33.6 0-59.733-28-59.733-59.733 0-33.6 26.133-59.733 59.733-59.733z" />
<glyph unicode="&#xe940;" glyph-name="ic-export" horiz-adv-x="1161" d="M1128.53 343.2l-149.327 149.333c-18.671 16.8-46.667 16.8-63.468 0-18.671-18.666-18.671-46.666 0-63.466l74.663-72.8h-518.932c-26.133 0-44.8-20.533-44.8-44.8 0-26.133 18.667-44.797 44.8-44.797h518.932l-72.8-74.67c-9.332-7.468-13.066-18.664-13.066-29.867 0-13.066 3.734-24.269 13.066-31.73 16.8-18.671 44.803-18.671 61.604 0l149.327 149.331c18.671 16.8 18.671 44.8 0 63.466zM740.27 192c-26.139 0-44.803-20.535-44.803-44.797v-74.67c0-16.8-14.933-29.867-29.867-29.867h-477.867c-16.8 0-29.867 13.066-29.867 29.867v714.934c0 16.8 13.067 29.867 29.867 29.867h298.667v-147.467c0-33.6 26.133-59.733 59.733-59.733h147.47v-134.4c0-26.133 18.664-44.8 42.933-44.8 22.398 0 48.531 18.667 48.531 44.8v173.6c0 31.733-13.066 61.6-35.465 84l-140.002 140c-22.4 22.4-52.267 35.467-84 35.467h-339.733c-65.334 0-119.467-54.133-117.6-119.467v-716.8c0-67.202 52.266-119.467 119.467-119.467h477.867c65.331 0 119.467 52.265 119.467 119.467v74.67c0 24.262-20.535 44.797-44.797 44.797z" />
<glyph unicode="&#xe941;" glyph-name="ic-generate" d="M80 268c6.857 24 20.571 46.286 37.715 63.429l521.143 521.143c42.857 42.857 113.139 42.857 156.001 0l66.853-66.857c5.149-5.143 10.291-12.001 13.722-17.143 29.14-42.857 23.998-101.143-13.722-138.857l-521.139-521.141c-1.714-1.719-5.143-3.43-6.857-6.861-17.143-13.714-36-23.998-56.572-30.852l-207.428-60.006c-13.714-5.142-29.143-1.712-39.429 10.291-12 10.284-15.429 25.71-12 39.424l61.714 207.43zM119.428 110.285l133.715 39.431c10.285 3.43 20.571 8.572 29.143 17.137l392.571 392.575-108 106.285-390.857-392.571c-1.714 0-1.714-1.714-3.428-3.429-6.858-6.857-10.286-15.429-13.714-25.714l-39.429-133.715zM964.571 91.429c22.287 0 41.143-18.856 41.143-41.143 0-23.998-18.856-41.143-41.143-41.143h-521.143c-24 0-41.143 17.145-41.143 41.143 0 22.287 17.143 41.143 41.143 41.143h521.143z" />
<glyph unicode="&#xe942;" d="M248.308 680.653h106.114c32.627 0 59.077-26.45 59.077-59.077v-505.594c0-32.627-26.45-59.077-59.077-59.077h-106.114c-32.627 0-59.077 26.45-59.077 59.077v505.594c0 32.627 26.45 59.077 59.077 59.077z" />
<glyph unicode="&#xe943;" d="M696.846 841.846h106.114c32.627 0 59.077-26.45 59.077-59.077v-666.785c0-32.627-26.45-59.077-59.077-59.077h-106.114c-32.627 0-59.077 26.45-59.077 59.077v666.785c0 32.627 26.45 59.077 59.077 59.077z" />
<glyph unicode="&#xe944;" d="M944.433 215.928c-4.807-13.505-18.353-26.317-45.143-35.726-26.587-9.338-63.234-14.147-108.056-13.584-89.439 1.126-206.905 23.576-330.76 67.671-123.855 44.093-229.083 100.925-299.111 156.57-35.095 27.886-60.458 54.774-75.162 78.811-14.817 24.222-17.22 42.711-12.411 56.216 4.808 13.507 18.354 26.319 45.144 35.728 26.585 9.336 63.233 14.147 108.055 13.582 89.439-1.126 206.905-23.576 330.76-67.669s229.083-100.925 299.112-156.572c35.094-27.886 60.457-54.772 75.162-78.809 14.816-24.222 17.219-42.711 12.41-56.218z" />
<glyph unicode="&#xe945;" d="M637.769 680.653h224.268v-371.444h-224.268v371.444z" />
<glyph unicode="&#xe946;" d="M248.308 680.653h106.114c32.627 0 59.077-26.45 59.077-59.077v-141.156c0-32.627-26.45-59.077-59.077-59.077h-106.114c-32.627 0-59.077 26.45-59.077 59.077v141.156c0 32.627 26.45 59.077 59.077 59.077z" />
<glyph unicode="&#xe947;" d="M217.26 351.258c0-15.483-12.551-28.034-28.034-28.034s-28.034 12.551-28.034 28.034c0 15.483 12.551 28.034 28.034 28.034s28.034-12.551 28.034-28.034z" />
<glyph unicode="&#xe948;" d="M932.125 323.226c0-15.483-12.551-28.034-28.034-28.034s-28.034 12.551-28.034 28.034c0 15.483 12.551 28.034 28.034 28.034s28.034-12.551 28.034-28.034z" />
<glyph unicode="&#xe949;" glyph-name="ic-nav" d="M928 896h-832c-53.020 0-96-42.98-96-96v-128c0-35.2 28.8-64 62.2-64l1.8-480c0-70.701 57.3-128 128-128h640c70.701 0 128 57.299 128 128v480c35.2 0 64 28.8 64 62.2v129.8c0 53.020-43.002 96-96 96zM832 96h-640c-17.674 0-32 14.323-32 32v480h704v-480c0-17.6-14.4-32-32-32zM928 704h-832v96h832v-96zM366.2 416h288.001c28.397 0 49.798 21.4 49.798 48s-21.402 48-48 48h-289.8c-24.8 0-46.2-21.4-46.2-46.2 0-28.4 21.4-49.8 46.2-49.8z" />
<glyph unicode="&#xe94a;" glyph-name="ic-oclock" d="M556.572 222.859c0-26.002-20.429-44.573-44.572-44.573-26 0-44.572 18.571-44.572 44.573v252.57c0 7.428 1.858 16.715 7.429 24.143l118.857 178.286c13 20.429 40.857 26 61.286 13 20.429-14.857 26-42.714 11.143-63.143l-109.571-167.142v-237.713zM512 0c-263.714 0-475.429 211.712-475.429 475.429 0 261.857 211.714 475.429 475.429 475.429 261.859 0 475.429-213.571 475.429-475.429 0-263.717-213.57-475.429-475.429-475.429zM898.282 475.429c0 211.714-174.568 386.286-386.282 386.286-213.571 0-386.286-174.572-386.286-386.286 0-213.571 172.714-386.282 386.286-386.282 211.714 0 386.282 172.711 386.282 386.282z" />
<glyph unicode="&#xe94b;" glyph-name="ic-record" d="M128 91.429h339.428l-8.571-36.001c-3.429-15.426-3.429-32.571 1.714-46.285h-332.572c-61.714 0-109.714 47.996-109.714 109.714v658.286c0 60 48 109.714 109.714 109.714h282.857c29.142 0 56.571-12 77.143-32.571l156-156c20.571-20.572 32.571-48.001 32.571-77.143v-248.572l-82.286-82.286v322.286h-137.143c-30.858 0-54.857 24-54.857 54.857v137.143h-274.286c-15.429 0-27.429-13.714-27.429-27.429v-658.286c0-15.426 12-27.429 27.429-27.429zM985.147 456.572c25.71-25.715 25.71-68.571 0-96l-51.434-51.429-121.71 121.714 51.427 51.429c25.71 25.714 70.283 25.714 96 0l25.717-25.714zM551.428 172.003l222.855 221.14 121.717-121.714-222.858-221.143c-6.856-6.853-15.428-12.003-24-15.426l-104.572-25.717c-8.572-1.712-18.857 0-25.714 6.861-6.857 6.853-8.572 17.137-6.857 27.429l25.714 102.853c1.714 8.572 6.857 17.145 13.714 25.717z" />
<glyph unicode="&#xe94c;" glyph-name="ic-refesh" d="M992 821.333v-288c0-36-30.003-64-64-64h-288c-36 0-64 28-64 64 0 34 28 64 64 64h126c-60 78-153.999 126-256 126-176 0-318-142-318-318 0-178 142-320 318-320 70.001 0 136 22 192 64 28 20 68 14 90-14s16-67.997-12-90.004c-78-57.993-172-87.996-270-87.996-246 0-446 200-446 448 0 246 200 446 446 446 140 0 268-64 354-172v142c0 34 27.998 64 64 64 33.997 0 64-30 64-64z" />
<glyph unicode="&#xe94d;" glyph-name="ic-remove-dk" d="M496.253 903.111c19.961 0 37.704-6.099 51.011-18.296 28.832-24.395 28.832-67.085 0-91.48l-374.824-345.589 374.824-343.558c28.832-24.394 28.832-67.085 0-91.48-26.615-26.427-73.19-26.427-99.805 0l-425.835 390.314c-28.833 24.395-28.833 67.085 0 91.48l425.835 390.313c13.307 12.197 31.050 18.296 48.794 18.296zM951.364 903.111c19.961 0 37.704-6.099 51.011-18.296 28.832-24.395 28.832-67.085 0-91.48l-374.824-345.589 374.824-343.558c28.832-24.394 28.832-67.085 0-91.48-26.615-26.427-73.19-26.427-99.805 0l-425.835 390.314c-28.832 24.395-28.832 67.085 0 91.48l425.835 390.313c13.307 12.197 31.050 18.296 48.794 18.296z" />
<glyph unicode="&#xe94e;" d="M512 917.333c259.206 0 469.333-210.128 469.333-469.333s-210.128-469.333-469.333-469.333c-259.206 0-469.333 210.128-469.333 469.333s210.128 469.333 469.333 469.333z" />
<glyph unicode="&#xe94f;" d="M712 306.667c17.334-16 17.334-44 0-60-8-7.999-18.667-12-29.333-12-12 0-22.666 4-30.667 12l-140 140-141.333-140c-8-7.999-18.667-12-29.333-12-12 0-22.666 4-30.667 12-17.333 16-17.333 44 0 60l140 141.333-140 140c-17.333 16-17.333 44 0 60 16 17.334 44 17.334 60 0l141.333-140 140 140c16 17.334 44 17.334 60 0 17.334-16 17.334-44 0-60l-140-141.332 140-140z" />
<glyph unicode="&#xe950;" d="M512 917.333c259.206 0 469.333-210.128 469.333-469.333s-210.128-469.333-469.333-469.333c-259.206 0-469.333 210.128-469.333 469.333s210.128 469.333 469.333 469.333z" />
<glyph unicode="&#xe951;" glyph-name="ic-search-white" d="M930.462 51.074l-247.384 247.387c53.538 64.616 83.076 147.692 83.076 238.154 0 210.462-173.538 384-384 384-212.307 0-382.154-173.538-382.154-384 0-212.307 171.693-384 382.154-384 88.615 0 171.693 29.538 238.154 83.077l247.383-247.382c9.232-9.232 20.307-12.926 33.233-12.926 11.075 0 22.158 3.694 29.538 12.926 18.464 16.612 18.464 44.308 0 62.763zM88.615 536.615c0 162.462 131.077 295.385 295.385 295.385 162.462 0 295.385-132.923 295.385-295.385 0-164.308-132.923-295.385-295.385-295.385-164.308 0-295.385 131.077-295.385 295.385z" />
<glyph unicode="&#xe952;" glyph-name="ic-search-yl" d="M936.002 76.142l-248.859 248.858c53.86 65 83.571 148.571 83.571 239.571 0 211.714-174.571 386.286-386.285 386.286-213.571 0-384.429-174.572-384.429-386.286 0-213.571 172.714-386.286 384.429-386.286 89.143 0 172.714 29.718 239.571 83.572l248.858-248.86c9.282-9.282 20.429-12.997 33.426-12.997 11.147 0 22.287 3.716 29.718 12.997 18.571 16.713 18.571 44.573 0 63.144zM89.143 564.571c0 163.428 131.857 297.143 297.143 297.143 163.428 0 297.143-133.715 297.143-297.143 0-165.286-133.715-297.143-297.143-297.143-165.286 0-297.143 131.857-297.143 297.143z" />
<glyph unicode="&#xe953;" glyph-name="ic-search" d="M930.462 51.074l-247.384 247.387c53.538 64.616 83.076 147.692 83.076 238.154 0 210.462-173.538 384-384 384-212.307 0-382.154-173.538-382.154-384 0-212.307 171.693-384 382.154-384 88.615 0 171.693 29.538 238.154 83.077l247.383-247.382c9.232-9.232 20.307-12.926 33.233-12.926 11.075 0 22.158 3.694 29.538 12.926 18.464 16.612 18.464 44.308 0 62.763zM88.615 536.615c0 162.462 131.077 295.385 295.385 295.385 162.462 0 295.385-132.923 295.385-295.385 0-164.308-132.923-295.385-295.385-295.385-164.308 0-295.385 131.077-295.385 295.385z" />
<glyph unicode="&#xe954;" glyph-name="ic-session" d="M977.455 424.727c0-258.182-209.091-465.455-465.455-465.455-258.182 0-465.455 207.272-465.455 465.455 0 256.364 207.272 465.455 465.455 465.455 256.364 0 465.455-209.091 465.455-465.455z" />
<glyph unicode="&#xe955;" glyph-name="ic-update" d="M696.265 862.134c52.265 52.266 136.267 52.266 188.532 0l24.269-24.267c52.265-52.267 52.265-136.267 0-188.533l-369.6-369.6c-14.933-14.934-35.467-28-57.866-33.598l-186.667-54.135c-14.933-3.734-31.733 0-42.933 13.066-13.067 11.203-16.8 28.003-13.067 42.933l54.133 186.668c5.6 22.4 18.667 42.933 33.6 57.866l369.598 369.601zM821.33 798.667c-16.794 16.8-44.797 16.8-61.597 0l-55.999-54.133 87.736-87.734 54.129 56.001c16.8 16.8 16.8 44.8 0 61.6l-24.269 24.267zM378.933 410.4l-31.733-110.133 110.133 31.733c7.466 1.866 13.066 5.6 18.667 11.2l252.002 252-85.869 85.866-252-252c-5.6-5.601-9.333-11.201-11.2-18.667zM373.333 789.333c24.267 0 44.8-20.533 44.8-44.8 0-26.133-20.533-44.8-44.8-44.8h-209.067c-42.934 0-74.667-33.6-74.667-74.667v-507.737c0-42.933 31.733-74.663 74.667-74.663h507.733c41.066 0 74.667 31.73 74.667 74.663v209.070c0 24.267 18.664 44.8 44.803 44.8 24.262 0 44.797-20.533 44.797-44.8v-209.070c0-91.464-74.67-164.263-164.267-164.263h-507.733c-91.466 0-164.267 72.8-164.267 164.263v507.737c0 89.6 72.8 164.267 164.267 164.267h209.067z" />
<glyph unicode="&#xe956;" glyph-name="ic-upload" d="M523.731 960c23.025 0 41.69-18.665 41.69-41.69v-792.101c0-23.025-18.665-41.687-41.69-41.687s-41.689 18.662-41.689 41.687v792.101c0 23.024 18.665 41.69 41.689 41.69zM494.25 947.789c16.281 16.281 42.677 16.281 58.958 0l375.202-375.206c16.282-16.281 16.282-42.677 0-58.958-16.273-16.281-42.675-16.281-58.957 0l-345.724 345.727-345.727-345.727c-16.281-16.281-42.677-16.281-58.958 0s-16.281 42.677 0 58.958l375.206 375.206zM23.458-22.315c0 23.023 18.665 41.694 41.69 41.694h917.167c23.031 0 41.694-18.671 41.694-41.694s-18.662-41.685-41.694-41.685h-917.167c-23.024 0-41.69 18.662-41.69 41.685z" />
<glyph unicode="&#xe957;" glyph-name="ic-write" d="M128 91.429h339.428l-8.571-36.001c-3.429-15.426-3.429-32.571 1.714-46.285h-332.572c-61.714 0-109.714 47.996-109.714 109.714v658.286c0 60 48 109.714 109.714 109.714h282.857c29.142 0 56.571-12 77.143-32.571l156-156c20.571-20.572 32.571-48.001 32.571-77.143v-248.572l-82.286-82.286v322.286h-137.143c-30.858 0-54.857 24-54.857 54.857v137.143h-274.286c-15.429 0-27.429-13.714-27.429-27.429v-658.286c0-15.426 12-27.429 27.429-27.429zM985.147 456.572c25.71-25.715 25.71-68.571 0-96l-51.434-51.429-121.71 121.714 51.427 51.429c25.71 25.714 70.283 25.714 96 0l25.717-25.714zM551.428 172.003l222.855 221.14 121.717-121.714-222.858-221.143c-6.856-6.853-15.428-12.003-24-15.426l-104.572-25.717c-8.572-1.712-18.857 0-25.714 6.861-6.857 6.853-8.572 17.137-6.857 27.429l25.714 102.853c1.714 8.572 6.857 17.145 13.714 25.717z" />
</font>
</defs>
</svg>
